<svg width="90" height="90" viewBox="0 0 90 90" fill="none" xmlns="http://www.w3.org/2000/svg">
<path d="M9.68028 55.8331C9.3535 55.5061 8.89999 55.3198 8.43768 55.3198C7.97538 55.3198 7.52186 55.5061 7.19491 55.8331C6.86796 56.1618 6.67987 56.6136 6.67987 57.0776C6.67987 57.5399 6.86778 57.9917 7.19491 58.3204C7.52204 58.6474 7.97555 58.8354 8.43768 58.8354C8.89999 58.8354 9.3535 58.6474 9.68028 58.3204C10.0072 57.9917 10.1955 57.5399 10.1955 57.0776C10.1955 56.6136 10.0074 56.1618 9.68028 55.8331Z" fill="white"/>
<path d="M78.0467 0H11.9533C9.04553 0 6.67987 2.36566 6.67987 5.27344V39.4654C6.67987 39.4683 6.67987 39.4713 6.67987 39.4743V50.9179C6.67987 51.8887 7.46702 52.6757 8.43768 52.6757C9.40835 52.6757 10.1955 51.8887 10.1955 50.9179V42.7985L10.2148 42.8117C17.3011 47.6321 22.622 54.4278 25.6017 62.4642C29.4791 72.9207 37.0431 81.4208 46.7907 86.4838H26.6045L25.1144 84.9009C21.5046 81.0664 19.5165 76.0546 19.5165 70.7883C19.5165 69.8175 18.7293 69.0305 17.7587 69.0305C16.788 69.0305 16.0008 69.8175 16.0008 70.7883C16.0008 76.5821 18.0566 82.1129 21.8115 86.4837H11.9533C10.9841 86.4837 10.1955 85.6951 10.1955 84.7259V63.8592C10.1955 62.8884 9.40835 62.1014 8.43768 62.1014C7.46702 62.1014 6.67987 62.8884 6.67987 63.8592V84.726C6.67987 87.6338 9.04553 89.9995 11.9533 89.9995H55.7149C55.719 89.9995 55.723 90 55.7271 90C55.7314 90 55.7358 89.9995 55.7404 89.9995H78.0467C80.9545 89.9995 83.3201 87.6338 83.3201 84.726V5.27344C83.3201 2.36566 80.9545 0 78.0467 0ZM79.8047 21.639C78.0486 20.6429 76.0832 20.1127 74.0385 20.1127C70.698 20.1127 67.5659 21.5218 65.2192 24.0803C60.4698 29.2588 60.4698 37.685 65.2192 42.8636C67.5659 45.4221 70.698 46.8313 74.0385 46.8313C76.0831 46.8313 78.0486 46.301 79.8047 45.305V62.2506C78.4289 64.0898 76.9279 65.738 75.3348 67.1493C74.6081 67.793 74.5407 68.904 75.1846 69.6306C75.5322 70.0228 76.0155 70.2228 76.5011 70.2228C76.9154 70.2228 77.3315 70.0771 77.666 69.7808C78.3983 69.1321 79.1118 68.4392 79.8047 67.7074V84.726C79.8045 85.6953 79.016 86.4838 78.0467 86.4838H56.0298L53.6426 85.6371C42.1546 81.5623 33.1358 72.6704 28.8981 61.2418C25.663 52.5166 19.886 45.1385 12.1922 39.9046L10.1957 38.5465V5.27344C10.1957 4.30418 10.9842 3.51562 11.9535 3.51562H14.6354C16.753 8.03109 17.8715 13.0259 17.8715 18.0123V22.6828C17.8715 23.6537 18.6587 24.4406 19.6293 24.4406C20.6 24.4406 21.3871 23.6537 21.3871 22.6828V18.0123C21.3871 13.0565 20.3847 8.09314 18.4781 3.51562H37.1254C31.3603 11.6119 28.1879 22.2576 28.1879 33.5519C28.1879 45.0076 31.4497 55.7979 37.3722 63.9357C43.4171 72.2417 51.5076 76.8161 60.1532 76.8161C61.1239 76.8161 61.911 76.0291 61.911 75.0582C61.911 74.0874 61.1239 73.3004 60.1532 73.3004C52.6614 73.3004 45.5808 69.2399 40.2147 61.8669C28.8517 46.254 28.8517 20.8496 40.2149 5.23652C40.6457 4.64449 41.0929 4.06846 41.5489 3.51545H78.0469C79.0161 3.51545 79.8047 4.304 79.8047 5.27326V21.639ZM79.8045 25.9903V40.9542C78.1965 42.4805 76.1727 43.316 74.0384 43.316C71.6949 43.316 69.4828 42.3116 67.8101 40.4877C64.2623 36.6195 64.2623 30.3253 67.8101 26.4568C69.4828 24.6329 71.6949 23.6285 74.0384 23.6285C76.1727 23.6287 78.1965 24.464 79.8045 25.9903Z" fill="white"/>
<path d="M61.6314 8.99697C61.2991 8.08484 60.29 7.61445 59.3782 7.94667C55.8142 9.24464 52.5333 11.5597 49.8901 14.6413C49.258 15.3782 49.343 16.4879 50.0801 17.12C50.4116 17.4044 50.8185 17.5435 51.2235 17.5435C51.7187 17.5435 52.2111 17.3353 52.5588 16.93C54.8095 14.3057 57.5835 12.3416 60.5811 11.2501C61.4932 10.9179 61.9634 9.90909 61.6314 8.99697Z" fill="white"/>
<path d="M69.2529 58.3516C69.1975 57.3824 68.3733 56.6432 67.3972 56.6974L67.3657 56.6991C66.3964 56.7547 65.6559 57.5854 65.7116 58.5547C65.7652 59.4897 66.5402 60.2119 67.465 60.2119C67.4988 60.2119 67.533 60.2109 67.5673 60.209L67.5988 60.2072C68.568 60.1517 69.3086 59.3209 69.2529 58.3516Z" fill="white"/>
<path d="M61.6168 56.0355C58.2082 55.0318 55.076 52.9498 52.5588 50.0148C46.8484 43.3566 45.1266 33.3954 48.1725 24.6375C48.4912 23.7206 48.0066 22.7186 47.0897 22.3998C46.1714 22.0809 45.1709 22.5657 44.852 23.4828C41.4028 33.4003 43.3805 44.7131 49.8903 52.3037C52.8508 55.7555 56.5622 58.212 60.6238 59.4082C60.7896 59.4571 60.9567 59.4803 61.1211 59.4803C61.8806 59.4803 62.5813 58.9841 62.8067 58.2185C63.0807 57.2871 62.5481 56.3097 61.6168 56.0355Z" fill="white"/>
</svg>
